<?xml version="1.0" encoding="UTF-8" standalone="no"?>
<svg
   xmlns:dc="http://purl.org/dc/elements/1.1/"
   xmlns:cc="http://creativecommons.org/ns#"
   xmlns:rdf="http://www.w3.org/1999/02/22-rdf-syntax-ns#"
   xmlns:svg="http://www.w3.org/2000/svg"
   xmlns="http://www.w3.org/2000/svg"
   id="svg884"
   version="1.1"
   viewBox="0 0 71.086105 12.74377"
   height="12.74377mm"
   width="71.086105mm">
  <defs
     id="defs878">
    <filter
       style="color-interpolation-filters:sRGB"
       id="filter1464">
      <feFlood
         flood-opacity="0.498039"
         flood-color="rgb(0,0,0)"
         result="flood"
         id="feFlood1454" />
      <feComposite
         in="flood"
         in2="SourceGraphic"
         operator="in"
         result="composite1"
         id="feComposite1456" />
      <feGaussianBlur
         in="composite1"
         stdDeviation="1.2"
         result="blur"
         id="feGaussianBlur1458" />
      <feOffset
         dx="1"
         dy="1"
         result="offset"
         id="feOffset1460" />
      <feComposite
         in="SourceGraphic"
         in2="offset"
         operator="over"
         result="composite2"
         id="feComposite1462" />
    </filter>
    <filter
       id="filter3506"
       style="color-interpolation-filters:sRGB;">
      <feFlood
         id="feFlood3496"
         result="flood"
         flood-color="rgb(0,0,0)"
         flood-opacity="0.498039" />
      <feComposite
         id="feComposite3498"
         result="composite1"
         operator="in"
         in2="SourceGraphic"
         in="flood" />
      <feGaussianBlur
         id="feGaussianBlur3500"
         result="blur"
         stdDeviation="0.3"
         in="composite1" />
      <feOffset
         id="feOffset3502"
         result="offset"
         dy="0.1"
         dx="0.1" />
      <feComposite
         id="feComposite3504"
         result="composite2"
         operator="over"
         in2="offset"
         in="SourceGraphic" />
    </filter>
  </defs>
  <metadata
     id="metadata881">
    <rdf:RDF>
      <cc:Work
         rdf:about="">
        <dc:format>image/svg+xml</dc:format>
        <dc:type
           rdf:resource="http://purl.org/dc/dcmitype/StillImage" />
        <dc:title></dc:title>
      </cc:Work>
    </rdf:RDF>
  </metadata>
  <g
     transform="translate(-8.3021856,-154.55669)"
     id="layer1">
    <g
       style="filter:url(#filter3506)"
       id="g3350">
      <g
         style=""
         transform="translate(-18.515695,62.668407)"
         id="g972">
        <g
           transform="matrix(0.26458333,0,0,0.26458333,42.257596,122.37605)"
           id="g890"
           style="">
          <path
             style="opacity:1;fill:#71aaff;fill-opacity:0.53333285;stroke:none;stroke-width:1;stroke-miterlimit:4;stroke-dasharray:none;stroke-opacity:0.33333333;"
             id="path944"
             d="M 18.538137,21.186442 -4.9709355,21.200088 6.7717825,0.83381119 Z"
             transform="matrix(-7.6872731e-4,0.85366685,-0.81975874,-8.0052458e-4,59.693202,-106.95509)" />
          <path
             transform="matrix(7.6874161e-4,-0.85366685,0.81975874,8.0053948e-4,41.62245,-85.366477)"
             d="M 18.538137,21.186442 -4.9709355,21.200088 6.7717825,0.83381119 Z"
             id="path1021"
             style="opacity:1;fill:#71aaff;fill-opacity:1;stroke:none;stroke-width:1;stroke-miterlimit:4;stroke-dasharray:none;stroke-opacity:0.33333333;" />
          <path
             style="opacity:1;fill:#71aaff;fill-opacity:1;stroke:none;stroke-width:1;stroke-miterlimit:4;stroke-dasharray:none;stroke-opacity:0.33333333;"
             id="path1023"
             d="M 18.538137,21.186442 -4.9709355,21.200088 6.7717825,0.83381119 Z"
             transform="matrix(-7.6874161e-4,0.85366685,-0.81975874,-8.0053948e-4,59.686316,-86.886161)" />
          <path
             transform="matrix(7.6874161e-4,-0.85366685,0.81975874,8.0053948e-4,24.929157,-75.338224)"
             d="M 18.538137,21.186442 -4.9709355,21.200088 6.7717825,0.83381119 Z"
             id="path1025"
             style="opacity:1;fill:#71aaff;fill-opacity:0.73333333;stroke:none;stroke-width:1;stroke-miterlimit:4;stroke-dasharray:none;stroke-opacity:0.33333333;" />
          <path
             style="opacity:1;fill:#71aaff;fill-opacity:0.73333333;stroke:none;stroke-width:1;stroke-miterlimit:4;stroke-dasharray:none;stroke-opacity:0.33333333;"
             id="path1027"
             d="M 18.538137,21.186442 -4.9709355,21.200088 6.7717825,0.83381119 Z"
             transform="matrix(-7.6874161e-4,0.85366685,-0.81975874,-8.0053948e-4,42.999909,-96.926835)" />
          <path
             transform="matrix(7.6874161e-4,-0.85366685,0.81975874,8.0053948e-4,24.936044,-95.40715)"
             d="M 18.538137,21.186442 -4.9709355,21.200088 6.7717825,0.83381119 Z"
             id="path1029"
             style="opacity:1;fill:#71aaff;fill-opacity:0.53333285;stroke:none;stroke-width:1;stroke-miterlimit:4;stroke-dasharray:none;stroke-opacity:0.33333333;" />
        </g>
        <path
           style="fill:#ffffff;fill-opacity:0.66666667;stroke:#ffffff;stroke-width:0.26458335;stroke-opacity:0.66666667;"
           id="path5"
           d="m 53.871075,95.397382 c 0,0 0.206531,0.739605 0.206531,1.339662 0,0.574938 -0.37678,1.041029 -0.951719,1.041029 -0.577729,0 -1.013119,-0.466091 -1.013119,-1.041029 l 0.0084,-0.100475 c -0.563775,0.669832 -0.901482,1.537821 -0.901482,2.481167 0,1.233604 0.999165,2.232774 2.232771,2.232774 1.233606,0 2.232771,-0.99917 2.232771,-2.232774 0,-1.50433 -0.72286,-2.846783 -1.814126,-3.720354 z m -0.499583,5.115838 c -0.496791,0 -0.89869,-0.39074 -0.89869,-0.876365 0,-0.452136 0.293051,-0.770306 0.784261,-0.870781 0.494,-0.100474 1.004746,-0.337706 1.289425,-0.720068 0.108847,0.360034 0.164667,0.739605 0.164667,1.127549 0,0.739605 -0.600058,1.339665 -1.339663,1.339665 z" />
      </g>
      <path
         id="h1"
         style="font-style:normal;font-weight:normal;font-size:40px;line-height:1.25;font-family:sans-serif;letter-spacing:0px;word-spacing:0px;fill:#99cc33;fill-opacity:1;stroke:none;stroke-width:0.26458332;"
         d="m 14.715231,164.63119 h -1.674317 v -3.0179 H 9.9713344 v 3.0179 H 8.3021856 v -7.4104 h 1.6691488 v 2.95589 h 3.0695796 v -2.95589 h 1.674317 z" />
      <path
         id="u1"
         style="font-style:normal;font-variant:normal;font-weight:bold;font-stretch:normal;font-size:40px;line-height:1.25;font-family:'Segoe UI';-inkscape-font-specification:'Segoe UI Bold';letter-spacing:0px;word-spacing:0px;fill:#ffffff;fill-opacity:0.66666669;stroke:none;stroke-width:0.26458332"
         d="m 21.272971,164.63119 h -1.627808 v -0.80615 h -0.02584 q -0.604615,0.93534 -1.617473,0.93534 -1.839681,0 -1.839681,-2.22725 v -3.19361 h 1.627807 v 3.04891 q 0,1.12138 0.888836,1.12138 0.439249,0 0.702799,-0.30489 0.26355,-0.31006 0.26355,-0.83716 v -3.02824 h 1.627808 z" />
      <path
         id="b1"
         style="font-style:normal;font-variant:normal;font-weight:bold;font-stretch:normal;font-size:40px;line-height:1.25;font-family:'Segoe UI';-inkscape-font-specification:'Segoe UI Bold';letter-spacing:0px;word-spacing:0px;fill:#ffffff;fill-opacity:0.66666669;stroke:none;stroke-width:0.26458332"
         d="m 24.306377,164.01624 h -0.02067 v 0.61495 H 22.65273 v -7.83415 h 1.632975 v 3.3383 h 0.02067 q 0.604615,-0.92501 1.720826,-0.92501 1.023194,0 1.576131,0.7028 0.552936,0.7028 0.552936,1.92237 0,1.32291 -0.645953,2.1239 -0.645957,0.80098 -1.725994,0.80098 -0.976684,0 -1.477946,-0.74414 z m -0.04651,-2.23242 v 0.5426 q 0,0.5116 0.294556,0.8475 0.294555,0.33589 0.754477,0.33589 0.558104,0 0.862994,-0.42891 0.31006,-0.43408 0.31006,-1.22473 0,-0.65629 -0.28422,-1.0232 -0.279054,-0.37207 -0.800984,-0.37207 -0.490927,0 -0.816489,0.36691 -0.320394,0.3669 -0.320394,0.95601 z" />
      <path
         id="f1"
         style="font-style:normal;font-variant:normal;font-weight:bold;font-stretch:normal;font-size:40px;line-height:1.25;font-family:'Segoe UI';-inkscape-font-specification:'Segoe UI Bold';letter-spacing:0px;word-spacing:0px;fill:#ffffff;fill-opacity:0.66666669;stroke:none;stroke-width:0.26458332"
         d="m 43.612692,158.04761 q -0.315225,-0.12402 -0.604613,-0.12402 -0.785482,0 -0.785482,0.85266 v 0.56327 h 1.209228 v 1.20406 h -1.209228 v 4.08761 h -1.627809 v -4.08761 h -0.888833 v -1.20406 h 0.888833 v -0.65629 q 0,-0.90433 0.589111,-1.45727 0.589113,-0.55294 1.60197,-0.55294 0.496094,0 0.826823,0.10335 z" />
      <path
         id="t1"
         style="font-style:normal;font-weight:normal;font-size:40px;line-height:1.25;font-family:sans-serif;letter-spacing:0px;word-spacing:0px;fill:#99cc33;fill-opacity:1;stroke:none;stroke-width:0.26458332;"
         d="m 52.490704,158.57988 h -2.113566 v 6.05131 H 48.70282 v -6.05131 h -2.103231 v -1.35909 h 5.891115 z" />
      <path
         id="h2"
         style="font-style:normal;font-variant:normal;font-weight:bold;font-stretch:normal;font-size:40px;line-height:1.25;font-family:'Segoe UI';-inkscape-font-specification:'Segoe UI Bold';letter-spacing:0px;word-spacing:0px;fill:#ffffff;fill-opacity:0.66666669;stroke:none;stroke-width:0.26458332"
         d="m 58.407655,164.63119 h -1.627807 v -3.00757 q 0,-1.16272 -0.847495,-1.16272 -0.43408,0 -0.702799,0.32556 -0.268716,0.32557 -0.268716,0.82683 v 3.0179 h -1.632977 v -7.83415 h 1.632977 v 3.32797 h 0.02066 q 0.599448,-0.91468 1.627809,-0.91468 1.798338,0 1.798338,2.17041 z" />
      <path
         id="i1"
         style="font-style:normal;font-variant:normal;font-weight:bold;font-stretch:normal;font-size:40px;line-height:1.25;font-family:'Segoe UI';-inkscape-font-specification:'Segoe UI Bold';letter-spacing:0px;word-spacing:0px;fill:#ffffff;fill-opacity:0.66666669;stroke:none;stroke-width:0.26458332"
         d="m 60.52122,158.50237 q -0.413411,0 -0.67696,-0.24288 -0.263551,-0.24805 -0.263551,-0.60462 0,-0.3669 0.263551,-0.59944 0.263549,-0.23255 0.67696,-0.23255 0.418579,0 0.676963,0.23255 0.263549,0.23254 0.263549,0.59944 0,0.37207 -0.263549,0.60978 -0.258384,0.23772 -0.676963,0.23772 z m 0.806154,6.12882 h -1.632976 v -5.29167 h 1.632976 z" />
      <path
         id="n1"
         style="font-style:normal;font-variant:normal;font-weight:bold;font-stretch:normal;font-size:40px;line-height:1.25;font-family:'Segoe UI';-inkscape-font-specification:'Segoe UI Bold';letter-spacing:0px;word-spacing:0px;fill:#ffffff;fill-opacity:0.66666669;stroke:none;stroke-width:0.26458332"
         d="m 67.823101,164.63119 h -1.627809 v -2.94039 q 0,-1.2299 -0.878499,-1.2299 -0.423746,0 -0.697632,0.32556 -0.273883,0.32557 -0.273883,0.82683 v 3.0179 h -1.632977 v -5.29167 h 1.632977 v 0.83716 h 0.02066 q 0.583943,-0.96635 1.700154,-0.96635 1.757,0 1.757,2.18075 z" />
      <path
         id="g1"
         style="font-style:normal;font-variant:normal;font-weight:bold;font-stretch:normal;font-size:40px;line-height:1.25;font-family:'Segoe UI';-inkscape-font-specification:'Segoe UI Bold';letter-spacing:0px;word-spacing:0px;fill:#ffffff;fill-opacity:0.66666669;stroke:none;stroke-width:0.26458332"
         d="m 74.308494,164.02658 q 0,1.47277 -0.852662,2.27893 -0.852662,0.81132 -2.470134,0.81132 -1.069703,0 -1.694987,-0.30489 v -1.3746 q 0.816488,0.47543 1.648478,0.47543 0.826823,0 1.281576,-0.43925 0.454752,-0.43409 0.454752,-1.18339 v -0.41858 h -0.02066 q -0.558106,0.88883 -1.648478,0.88883 -1.01286,0 -1.607137,-0.71313 -0.594278,-0.71314 -0.594278,-1.91203 0,-1.34359 0.661458,-2.13424 0.661458,-0.79065 1.741495,-0.79065 0.966349,0 1.44694,0.74414 h 0.02066 v -0.61495 h 1.632977 z m -1.612305,-1.93787 v -0.41858 q 0,-0.50126 -0.299725,-0.85266 -0.294555,-0.35657 -0.769977,-0.35657 -0.542602,0 -0.852662,0.42375 -0.310058,0.42375 -0.310058,1.19372 0,0.66146 0.294556,1.04904 0.294555,0.3824 0.806151,0.3824 0.506431,0 0.816488,-0.38757 0.315227,-0.39274 0.315227,-1.03353 z" />
      <path
         id="s1"
         style="font-style:normal;font-variant:normal;font-weight:bold;font-stretch:normal;font-size:40px;line-height:1.25;font-family:'Segoe UI';-inkscape-font-specification:'Segoe UI Bold';letter-spacing:0px;word-spacing:0px;fill:#ffffff;fill-opacity:0.66666669;stroke:none;stroke-width:0.26458332"
         d="m 75.326518,164.49167 v -1.32292 q 0.403077,0.24288 0.800986,0.36173 0.403075,0.11886 0.759643,0.11886 0.434083,0 0.68213,-0.11886 0.253214,-0.11885 0.253214,-0.36173 0,-0.15503 -0.113688,-0.25838 -0.113689,-0.10336 -0.294556,-0.18087 -0.175699,-0.0775 -0.387575,-0.13953 -0.211873,-0.062 -0.408241,-0.13953 -0.315227,-0.11885 -0.558107,-0.25321 -0.237712,-0.13952 -0.403077,-0.32039 -0.160197,-0.18087 -0.248047,-0.41858 -0.08268,-0.23771 -0.08268,-0.56327 0,-0.44442 0.191204,-0.76482 0.196371,-0.32039 0.516763,-0.52193 0.325562,-0.2067 0.738973,-0.29972 0.418579,-0.0982 0.868164,-0.0982 0.351401,0 0.713137,0.0568 0.361733,0.0517 0.713134,0.15503 v 1.2609 q -0.310062,-0.18087 -0.666628,-0.26872 -0.351401,-0.093 -0.692464,-0.093 -0.160198,0 -0.30489,0.031 -0.139528,0.0258 -0.248047,0.0827 -0.108522,0.0517 -0.170535,0.13952 -0.06201,0.0827 -0.06201,0.19121 0,0.14469 0.09302,0.24804 0.09302,0.10335 0.242879,0.18087 0.149863,0.0724 0.330729,0.13436 0.186037,0.0568 0.366903,0.11885 0.325562,0.11369 0.589111,0.24805 0.263552,0.13436 0.449585,0.31523 0.191204,0.18086 0.289388,0.42374 0.103355,0.24288 0.103355,0.57878 0,0.47025 -0.206706,0.80615 -0.201539,0.33073 -0.542605,0.5426 -0.335896,0.20671 -0.780312,0.29973 -0.43925,0.0982 -0.914675,0.0982 -0.873331,0 -1.617472,-0.26872 z" />
    </g>
  </g>
</svg>
