<?xml version="1.0" encoding="UTF-8" standalone="no"?>
<!-- Generator: Adobe Illustrator 19.1.0, SVG Export Plug-In . SVG Version: 6.00 Build 0)  -->

<svg
   xmlns:dc="http://purl.org/dc/elements/1.1/"
   xmlns:cc="http://creativecommons.org/ns#"
   xmlns:rdf="http://www.w3.org/1999/02/22-rdf-syntax-ns#"
   xmlns:svg="http://www.w3.org/2000/svg"
   xmlns="http://www.w3.org/2000/svg"
   xmlns:sodipodi="http://sodipodi.sourceforge.net/DTD/sodipodi-0.dtd"
   xmlns:inkscape="http://www.inkscape.org/namespaces/inkscape"
   version="1.1"
   id="Layer_1"
   x="0px"
   y="0px"
   viewBox="0 0 186.2 200"
   xml:space="preserve"
   sodipodi:docname="logo.svg"
   inkscape:version="0.92.2 (5c3e80d, 2017-08-06)"
   width="186.2"
   height="200"><metadata
     id="metadata23"><rdf:RDF><cc:Work
         rdf:about=""><dc:format>image/svg+xml</dc:format><dc:type
           rdf:resource="http://purl.org/dc/dcmitype/StillImage" /><dc:title></dc:title></cc:Work></rdf:RDF></metadata><defs
     id="defs21" /><sodipodi:namedview
     pagecolor="#2d3131"
     bordercolor="#666666"
     borderopacity="1"
     objecttolerance="10"
     gridtolerance="10"
     guidetolerance="10"
     inkscape:pageopacity="0"
     inkscape:pageshadow="2"
     inkscape:window-width="1680"
     inkscape:window-height="987"
     id="namedview19"
     showgrid="false"
     showborder="false"
     inkscape:zoom="0.944"
     inkscape:cx="93.1"
     inkscape:cy="105"
     inkscape:window-x="-8"
     inkscape:window-y="-8"
     inkscape:window-maximized="1"
     inkscape:current-layer="Layer_1"
     fit-margin-top="0"
     fit-margin-left="0"
     fit-margin-right="0"
     fit-margin-bottom="0" /><style
     type="text/css"
     id="style2">
	.st0{fill:#FFFFFF;}
	.st1{opacity:0.9;}
</style><g
     id="g16"
     transform="translate(-31.9,-30)"><g
       id="g8"><polygon
         class="st0"
         points="88.6,182.6 88.6,182.6 66.9,182.6 66.8,182.6 125,52.1 125,52.2 125,52.2 125,30 125,30 31.9,63.2 46.1,186.3 125,230 125,230 125,153.4 100.3,153.4 "
         id="polygon4"
         style="fill:#ffffff" /><polygon
         class="st0"
         points="125,135.4 125,94.5 108,135.4 125,135.4 "
         id="polygon6"
         style="fill:#ffffff" /></g><g
       class="st1"
       id="g14"
       style="opacity:0.9"><polygon
         class="st0"
         points="161.4,182.6 161.4,182.6 183.1,182.6 183.2,182.6 125,52.1 125,52.2 125,52.2 125,30 125,30 218.1,63.2 203.9,186.3 125,230 125,230 125,153.4 149.7,153.4 "
         id="polygon10"
         style="fill:#ffffff" /><polygon
         class="st0"
         points="125,135.4 125,94.5 142,135.4 125,135.4 "
         id="polygon12"
         style="fill:#ffffff" /></g></g></svg>