<?xml version="1.0" ?><!DOCTYPE svg  PUBLIC '-//W3C//DTD SVG 1.1//EN'  'http://www.w3.org/Graphics/SVG/1.1/DTD/svg11.dtd'><svg enable-background="new 0 0 150 150" height="150px" id="Layer_1" version="1.1" viewBox="0 0 150 150" width="150px" xml:space="preserve" xmlns="http://www.w3.org/2000/svg" xmlns:xlink="http://www.w3.org/1999/xlink"><g><circle cx="75.005" cy="75.013" fill="#52C6D8" opacity="0.2" r="75"/><path d="M75.005,0.013v150c41.422,0,75-33.579,75-75.001C150.005,33.592,116.427,0.013,75.005,0.013z   " fill="#52C6D8" opacity="0.2"/><circle cx="75.005" cy="75.013" fill="#52C6D8" r="65.487"/><path d="M75.005,9.525V140.5c36.168,0,65.488-29.319,65.488-65.488C140.493,38.845,111.173,9.525,75.005,9.525z" fill="#4DB8C9"/><g><path d="M9.591,72.086c-0.043,0.971-0.074,1.945-0.074,2.926c0,36.169,29.32,65.488,65.488,65.488v-5.852    C39.817,134.648,11.124,106.895,9.591,72.086z" fill="#4DB8C9"/><path d="M140.419,72.086c-1.531,34.809-30.227,62.562-65.414,62.562v5.852c36.168,0,65.488-29.319,65.488-65.488    C140.493,74.031,140.462,73.057,140.419,72.086z" fill="#47ACBC"/></g></g><g><path d="M50.175,114.25c1.879,0.334,4.098-0.077,6.471-1.355l41.613-22.406L86.153,78.439L50.175,114.25z" fill="#FFFFFF"/><path d="M46.083,38.555c-1.039,1.479-1.637,3.514-1.637,6.021v61.031c0,2.442,0.566,4.436,1.553,5.902L82.69,74.991   L46.083,38.555z" fill="#FFFFFF"/><path d="M98.181,59.572L56.653,37.275c-2.307-1.238-4.469-1.663-6.312-1.379l35.812,35.646L98.181,59.572z" fill="#FFFFFF"/><path d="M102.757,88.068l12.016-6.471c6.711-3.612,6.707-9.517-0.008-13.122l-12.082-6.487L89.618,74.991   L102.757,88.068z" fill="#FFFFFF"/></g></svg>